<svg width="240" height="52" viewBox="0 0 240 52" fill="none" xmlns="http://www.w3.org/2000/svg" class="livefront-logo" data-astro-cid-f6y3xvbk=""> <g id="livefront-primary_logo" clip-path="url(#clip0_3924_22836)" data-astro-cid-f6y3xvbk=""> <mask id="mask0_3924_22836" style="mask-type:luminance" maskUnits="userSpaceOnUse" x="0" y="0" width="240" height="52" data-astro-cid-f6y3xvbk=""> <rect id="Container" width="240" height="51.8919" fill="white" data-astro-cid-f6y3xvbk=""></rect> </mask> <g mask="url(#mask0_3924_22836)" data-astro-cid-f6y3xvbk=""> <path id="livefront_primary" fill-rule="evenodd" clip-rule="evenodd" d="M109.3 17.5978H122.987V14.0728H105.877V24.192L109.3 23.4498V17.5978ZM219.467 14.0728V17.5978H228.021V38.7493H231.444V17.5978H239.999V14.0728H219.467ZM207.253 30.7138L190.312 14.0728H190.141V38.7493H193.562V22.1106L210.47 38.7493H210.674V14.0728H207.253V30.7138ZM177.033 26.4116C177.033 21.5457 173.202 17.5971 168.48 17.5971C163.757 17.5971 159.923 21.5457 159.923 26.4116C159.923 31.2757 163.757 35.2243 168.48 35.2243C173.202 35.2243 177.033 31.2757 177.033 26.4116ZM144.141 22.8857C144.141 22.6972 144.111 22.5175 144.093 22.3337L133.876 24.5388V28.1746H139.006C141.847 28.1746 144.141 25.8097 144.141 22.8857ZM180.457 26.4119C180.457 33.2156 175.085 38.749 168.48 38.749C161.874 38.749 156.501 33.2156 156.501 26.4119C156.501 23.6992 157.365 21.1965 158.81 19.1577L147.46 21.6067C147.519 22.0257 147.56 22.4504 147.56 22.8857C147.56 26.3757 145.612 29.3732 142.737 30.8174L147.802 38.749H143.696L139.211 31.6996H139.005H133.875V38.749H130.451V25.2764L109.3 29.8394V30.8174V38.749H105.877V30.5793L7.09776 51.8919V48.6989L54.5916 38.4508L41.6439 14.0724H45.5444L55.0243 31.9103L64.4692 14.0724H68.3697L55.5285 38.2489L76.9179 33.6334V14.0724H94.0261V17.5974H80.3392V24.1648H90.6031V27.6898H80.3392V32.8964L232.798 0V3.19354L174.512 15.7699C178.062 17.9137 180.457 21.8751 180.457 26.4119ZM28.9136 38.7493H32.3366V14.0728H28.9136V38.7493ZM17.1099 38.7493H0V14.0728H3.42187V35.2249H17.1099V38.7493Z" fill="white" data-astro-cid-f6y3xvbk=""></path> </g> </g> <defs data-astro-cid-f6y3xvbk=""> <clipPath id="clip0_3924_22836" data-astro-cid-f6y3xvbk=""> <rect width="240" height="51.8919" fill="white" data-astro-cid-f6y3xvbk=""></rect> </clipPath> </defs> </svg>