<?xml version="1.0" encoding="UTF-8" standalone="no"?>
<svg
   width="474.76907"
   height="459.81"
   viewBox="0 0 474.76907 459.81"
   version="1.1"
   id="svg23"
   sodipodi:docname="devfestmn-icon.svg"
   inkscape:version="1.4.2 (ebf0e940d0, 2025-05-08)"
   xmlns:inkscape="http://www.inkscape.org/namespaces/inkscape"
   xmlns:sodipodi="http://sodipodi.sourceforge.net/DTD/sodipodi-0.dtd"
   xmlns:xlink="http://www.w3.org/1999/xlink"
   xmlns="http://www.w3.org/2000/svg"
   xmlns:svg="http://www.w3.org/2000/svg">
  <sodipodi:namedview
     id="namedview23"
     pagecolor="#ffffff"
     bordercolor="#000000"
     borderopacity="0.25"
     inkscape:showpageshadow="2"
     inkscape:pageopacity="0.0"
     inkscape:pagecheckerboard="0"
     inkscape:deskcolor="#d1d1d1"
     inkscape:zoom="2.5185714"
     inkscape:cx="399.82984"
     inkscape:cy="350"
     inkscape:window-width="3840"
     inkscape:window-height="2038"
     inkscape:window-x="3840"
     inkscape:window-y="0"
     inkscape:window-maximized="1"
     inkscape:current-layer="svg23" />
  <defs
     id="defs1">
    <path
       id="a"
       d="M -165.712,16.688 H 965.712 v 800 H -165.712 Z" />
  </defs>
  <clipPath
     id="b">
    <use
       xlink:href="#a"
       overflow="visible"
       id="use1" />
  </clipPath>
  <g
     clip-path="url(#b)"
     id="g22"
     transform="translate(-162.61394,-57.42)">
    <defs
       id="defs2">
      <path
         id="c"
         d="M -165.712,16.688 H 965.712 v 800 H -165.712 Z" />
    </defs>
    <clipPath
       id="d">
      <use
         xlink:href="#c"
         overflow="visible"
         id="use2" />
    </clipPath>
    <path
       clip-path="url(#d)"
       fill="#f7941e"
       d="m 235.982,57.96 c 7.296,-0.378 14.643,-0.54 21.99,-0.54 29.99,0 59.277,3.126 87.482,9.08 -8.43,13.506 -16.268,27.016 -23.61,40.465 v 0.05 c -26.045,-16.905 -54.627,-33.39 -85.91,-49 z"
       id="path2" />
    <path
       clip-path="url(#d)"
       fill="#feca84"
       d="m 235.934,58.066 v -0.052 c 31.284,15.612 59.865,32.096 85.91,49.002 -9.623,17.615 -18.262,35.175 -26.1,52.465 -19.665,-2.75 -40.2,-5.02 -61.6,-6.638 0,0 0,-0.058 -0.054,0 -2.427,-56.04 1.623,-93.097 1.844,-94.776"
       id="path3" />
    <path
       clip-path="url(#d)"
       fill="#fcc060"
       d="m 321.843,106.966 c 7.343,-13.45 15.182,-26.96 23.61,-40.466 48.034,10.1 93.042,28.365 133.515,53.272 z"
       id="path4" />
    <path
       clip-path="url(#d)"
       fill="#fbb040"
       d="m 321.843,106.966 157.125,12.806 c 0.05,0 0.106,0 0.16,0.052 l 73.316,119.573 c -32.466,-17.018 -74.13,-35.333 -125.086,-50.953 -29.44,-27.07 -64.35,-54.79 -105.515,-81.427 v -0.05 z"
       id="path5" />
    <path
       clip-path="url(#d)"
       fill="#d07828"
       d="m 235.934,58.066 c -0.22,1.68 -4.27,38.737 -1.844,94.776 -14.8,-1.198 -30.037,-2 -45.707,-2.49 12.11,-32.852 28.097,-63.81 47.55,-92.286 m 316.511,181.33 -73.316,-119.573 c 36.794,22.635 69.86,50.68 98.065,83.154 v 0.052 c -0.7,1.134 -9.19,14.913 -24.69,36.366 h -0.06 z"
       id="path6" />
    <path
       clip-path="url(#d)"
       fill="#f7941e"
       d="m 188.383,150.354 c 15.67,0.488 30.907,1.296 45.707,2.49 0,0 0.054,0 0,0.048 l -71.266,130.38 c 1.353,-46.582 10.266,-91.26 25.56,-132.918"
       id="path7" />
    <path
       clip-path="url(#d)"
       fill="#fbb040"
       d="m 234.09,152.892 0.054,-0.05 c 21.4,1.617 41.935,3.888 61.6,6.64 -19.774,43.875 -34.26,86.507 -44.85,126.11 -10.585,-49.445 -15.128,-95.31 -16.804,-132.7"
       id="path8" />
    <path
       clip-path="url(#d)"
       fill="#d07828"
       d="M 162.824,283.27 234.09,152.89 c 1.676,37.392 6.22,83.264 16.805,132.702 -12.855,48.31 -19.934,92.12 -23.713,128.27 -0.274,0.053 -0.487,0.053 -0.76,0.053 l -63.598,-129.83 c -0.052,-0.272 -0.052,-0.542 0,-0.814 M 295.742,159.48 c 7.84,-17.29 16.478,-34.85 26.1,-52.464 41.17,26.637 76.076,54.357 105.516,81.427 -38.52,-11.72 -82.393,-21.992 -131.616,-28.962"
       id="path9" />
    <path
       clip-path="url(#d)"
       fill="#feca84"
       d="m 427.358,188.443 c 50.955,15.62 92.62,33.936 125.086,50.953 -9.56,13.293 -21.828,29.55 -36.634,47.603 -21.56,-29.612 -50.463,-63.597 -88.452,-98.557"
       id="path10" />
    <path
       clip-path="url(#d)"
       fill="#f7941e"
       d="m 552.503,239.396 c 15.5,-21.453 23.99,-35.23 24.69,-36.367 23.72,27.344 44.034,57.763 60.19,90.563 -0.166,0.32 -0.33,0.64 -0.486,0.913 -6.968,-6.05 -34.96,-29.117 -84.394,-55.11"
       id="path11" />
    <path
       clip-path="url(#d)"
       fill="#fcc060"
       d="m 552.503,239.396 c 49.435,25.993 77.426,49.06 84.395,55.11 -1.135,2.165 -2.32,4.324 -3.567,6.483 l -0.056,0.058 c -9.89,8.638 -34.203,27.34 -78.447,47.222 -8.87,-16.37 -21.56,-37.388 -39.016,-61.27 14.807,-18.053 27.074,-34.31 36.635,-47.604 h 0.058 z m -389.679,44.689 63.6,129.834 c -15.075,0.645 -30.635,1.077 -46.74,1.24 -11.13,-37.77 -17.07,-77.753 -17.07,-119.14 -0.002,-3.993 0.047,-7.997 0.21,-11.935"
       id="path12" />
    <path
       clip-path="url(#d)"
       fill="#fbb040"
       d="m 416.12,391.602 c 40.263,-36.09 73.81,-73.107 99.69,-104.603 17.455,23.882 30.146,44.9 39.016,61.27 -33.824,15.123 -79.212,30.908 -138.707,43.332"
       id="path13" />
    <path
       clip-path="url(#d)"
       fill="#d07828"
       d="m 554.826,348.27 c 44.253,-19.88 68.562,-38.583 78.447,-47.22 -16.96,30.363 -37.653,58.352 -61.32,83.47 0,0 -4.916,-13.66 -17.127,-36.25"
       id="path14" />
    <path
       clip-path="url(#d)"
       fill="#feca84"
       d="m 554.826,348.27 -89.15,118.007 v 0.05 h -147.51 c 35.93,-22.853 68.676,-48.568 97.953,-74.725 59.494,-12.424 104.882,-28.21 138.706,-43.33"
       id="path15" />
    <path
       clip-path="url(#d)"
       fill="#fcc060"
       d="m 465.676,466.276 89.15,-118.006 c 12.21,22.59 17.127,36.25 17.127,36.25 -30.747,32.587 -66.624,60.298 -106.277,81.756"
       id="path16" />
    <path
       clip-path="url(#d)"
       fill="#feca84"
       d="m 227.182,413.86 c 3.78,-36.147 10.858,-79.96 23.713,-128.268 8.594,39.93 21.073,82.24 39.177,124.217 -19.94,1.786 -40.902,3.192 -62.89,4.05"
       id="path17" />
    <path
       clip-path="url(#d)"
       fill="#d07828"
       d="m 290.072,409.81 c 47.71,-4.163 89.53,-10.536 126.047,-18.208 -29.278,26.156 -62.023,51.872 -97.953,74.725 -10.642,-18.64 -19.936,-37.548 -28.095,-56.517"
       id="path18" />
    <path
       clip-path="url(#d)"
       fill="#fbb040"
       d="m 227.182,413.86 c 21.988,-0.858 42.95,-2.265 62.89,-4.05 8.16,18.97 17.453,37.875 28.095,56.516 -29.393,18.7 -60.893,35.444 -94.285,48.954 h -0.054 v -0.053 c -0.16,-1.732 -3.026,-40.095 3.188,-100.07 0.054,-0.43 0.11,-0.858 0.166,-1.296"
       id="path19" />
    <path
       clip-path="url(#d)"
       fill="#f7941e"
       d="m 226.423,413.915 0.594,1.247 c -6.214,59.97 -3.348,98.333 -3.188,100.065 -18.8,-31.02 -33.77,-64.567 -44.145,-100.065 16.104,-0.164 31.664,-0.597 46.738,-1.247"
       id="path20" />
    <path
       clip-path="url(#d)"
       fill="#d07828"
       d="m 318.167,466.326 h 147.45 c -37.056,20.153 -77.482,34.848 -120.165,43.117 -9.94,-14.093 -19.02,-28.53 -27.285,-43.117"
       id="path21" />
    <path
       clip-path="url(#d)"
       fill="#feca84"
       d="m 318.167,466.326 c 8.265,14.587 17.344,29.023 27.285,43.117 -26.206,5.134 -53.327,7.787 -81.044,7.787 -13.67,0 -27.18,-0.65 -40.525,-1.95 33.39,-13.51 64.89,-30.257 94.284,-48.954"
       id="path22" />
  </g>
</svg>
